<?xml version="1.0" encoding="iso-8859-1"?>
<!-- Generator: Adobe Illustrator 19.2.1, SVG Export Plug-In . SVG Version: 6.00 Build 0)  -->
<svg version="1.1"  xmlns="http://www.w3.org/2000/svg" xmlns:xlink="http://www.w3.org/1999/xlink" x="0px" y="0px"
	 viewBox="0 0 40 40" style="enable-background:new 0 0 40 40;" xml:space="preserve">
<g>
	<rect x="2.5" y="2.5" style="fill:#FFFFFF;" width="35" height="35"/>
	<g>
		<path style="fill:#788B9C;" d="M37,3v34H3V3H37 M38,2H2v36h36V2L38,2z"/>
	</g>
</g>
<g>
	<rect x="2.5" y="2.5" style="fill:#F78F8F;" width="35" height="5"/>
	<g>
		<path style="fill:#C74343;" d="M37,3v4H3V3H37 M38,2H2v6h36V2L38,2z"/>
	</g>
</g>
<rect x="3" y="34" style="fill:#E1EBF2;" width="34" height="3"/>
<path style="fill:#36404D;" d="M21.709,14.749v12.885H19.67V17.245c-0.369,0.264-0.766,0.488-1.191,0.672s-0.91,0.347-1.455,0.488
	v-1.74c0.34-0.111,0.668-0.229,0.984-0.352s0.628-0.261,0.936-0.413s0.618-0.322,0.932-0.51s0.637-0.401,0.971-0.642H21.709z"/>
</svg>
