<?xml version="1.0" encoding="iso-8859-1"?>
<!-- Generator: Adobe Illustrator 19.2.1, SVG Export Plug-In . SVG Version: 6.00 Build 0)  -->
<svg version="1.1"  xmlns="http://www.w3.org/2000/svg" xmlns:xlink="http://www.w3.org/1999/xlink" x="0px" y="0px"
	 viewBox="0 0 40 40" style="enable-background:new 0 0 40 40;" xml:space="preserve">
<g>
	<rect x="2.5" y="2.5" style="fill:#FFFFFF;" width="35" height="35"/>
	<g>
		<path style="fill:#788B9C;" d="M37,3v34H3V3H37 M38,2H2v36h36V2L38,2z"/>
	</g>
</g>
<g>
	<rect x="2.5" y="2.5" style="fill:#F78F8F;" width="35" height="5"/>
	<g>
		<path style="fill:#C74343;" d="M37,3v4H3V3H37 M38,2H2v6h36V2L38,2z"/>
	</g>
</g>
<rect x="3" y="34" style="fill:#E1EBF2;" width="34" height="3"/>
<path style="fill:#36404D;" d="M11.013,27.168v-1.916c0.82,0.65,1.746,0.976,2.777,0.976c0.838,0,1.507-0.19,2.009-0.571
	c0.5-0.381,0.751-0.896,0.751-1.547c0-1.43-1.093-2.145-3.278-2.145h-0.976V20.33h0.932c1.939,0,2.909-0.674,2.909-2.021
	c0-1.242-0.756-1.863-2.268-1.863c-0.844,0-1.638,0.302-2.382,0.905V15.54c0.855-0.48,1.866-0.721,3.032-0.721
	c1.119,0,2.016,0.281,2.689,0.844s1.011,1.283,1.011,2.162c0,1.658-0.844,2.725-2.531,3.199v0.035
	c0.908,0.088,1.626,0.406,2.153,0.954s0.791,1.232,0.791,2.052c0,1.131-0.425,2.043-1.274,2.738s-1.969,1.042-3.357,1.042
	C12.753,27.845,11.757,27.619,11.013,27.168z"/>
<path style="fill:#36404D;" d="M24.785,27.845c-1.312,0-2.336-0.536-3.072-1.608c-0.734-1.072-1.103-2.622-1.103-4.649
	c0-2.227,0.384-3.911,1.151-5.054s1.875-1.714,3.322-1.714c2.771,0,4.157,2.153,4.157,6.46c0,2.133-0.392,3.76-1.173,4.882
	C27.285,27.284,26.191,27.845,24.785,27.845z M24.987,16.445c-1.529,0-2.294,1.685-2.294,5.054c0,3.152,0.75,4.729,2.25,4.729
	c1.477,0,2.215-1.603,2.215-4.808C27.158,18.104,26.435,16.445,24.987,16.445z"/>
</svg>
