<?xml version="1.0" encoding="iso-8859-1"?>
<!-- Generator: Adobe Illustrator 19.2.1, SVG Export Plug-In . SVG Version: 6.00 Build 0)  -->
<svg version="1.1"  xmlns="http://www.w3.org/2000/svg" xmlns:xlink="http://www.w3.org/1999/xlink" x="0px" y="0px"
	 viewBox="0 0 40 40" style="enable-background:new 0 0 40 40;" xml:space="preserve">
<g>
	<rect x="2.5" y="2.5" style="fill:#FFFFFF;" width="35" height="35"/>
	<g>
		<path style="fill:#788B9C;" d="M37,3v34H3V3H37 M38,2H2v36h36V2L38,2z"/>
	</g>
</g>
<g>
	<rect x="2.5" y="2.5" style="fill:#F78F8F;" width="35" height="5"/>
	<g>
		<path style="fill:#C74343;" d="M37,3v4H3V3H37 M38,2H2v6h36V2L38,2z"/>
	</g>
</g>
<rect x="3" y="34" style="fill:#E1EBF2;" width="34" height="3"/>
<path style="fill:#36404D;" d="M24.135,16.05c-0.527,0.967-1.025,1.923-1.494,2.87s-0.894,1.897-1.274,2.852
	s-0.712,1.917-0.993,2.887s-0.498,1.961-0.65,2.975h-2.136c0.141-0.902,0.341-1.803,0.602-2.703s0.567-1.799,0.918-2.698
	s0.746-1.803,1.182-2.711s0.901-1.825,1.393-2.751h-5.968v-1.74h8.42V16.05z"/>
</svg>
