<?xml version="1.0" encoding="utf-8"?>
<!-- Generator: Adobe Illustrator 15.0.0, SVG Export Plug-In . SVG Version: 6.00 Build 0)  -->
<!DOCTYPE svg PUBLIC "-//W3C//DTD SVG 1.1//EN" "http://www.w3.org/Graphics/SVG/1.1/DTD/svg11.dtd">
<svg version="1.1"  xmlns="http://www.w3.org/2000/svg" xmlns:xlink="http://www.w3.org/1999/xlink" x="0px" y="0px"
	 width="48px" height="48px" viewBox="0 0 48 48" enable-background="new 0 0 48 48" xml:space="preserve">
<path fill="#BBDEFB" d="M5,39V15h38v24c0,2.209-1.791,4-4,4H9C6.791,43,5,41.209,5,39"/>
<path fill="#2196F3" d="M43,11v6H5v-6c0-2.209,1.791-4,4-4h30C41.209,7,43,8.791,43,11"/>
<g>
	<path fill="#1565C0" d="M36,11c0,1.657-1.343,3-3,3s-3-1.343-3-3s1.343-3,3-3S36,9.343,36,11"/>
	<path fill="#1565C0" d="M18,11c0,1.657-1.343,3-3,3s-3-1.343-3-3s1.343-3,3-3S18,9.343,18,11"/>
</g>
<g>
	<path fill="#B0BEC5" d="M33,4c-1.104,0-2,0.896-2,2v5c0,1.104,0.896,2,2,2s2-0.896,2-2V6C35,4.896,34.104,4,33,4"/>
	<path fill="#B0BEC5" d="M15,4c-1.104,0-2,0.896-2,2v5c0,1.104,0.896,2,2,2s2-0.896,2-2V6C17,4.896,16.104,4,15,4"/>
</g>
<g>
	<g>
		<path fill="#1565C0" d="M35,31.244c0,1.842-0.413,3.26-1.238,4.258c-0.828,1-1.994,1.498-3.496,1.498
			c-1.517,0-2.688-0.503-3.519-1.507s-1.245-2.421-1.245-4.249v-2.488c0-1.842,0.413-3.26,1.239-4.259
			C27.568,23.499,28.734,23,30.247,23c1.51,0,2.68,0.503,3.508,1.506C34.585,25.511,35,26.93,35,28.766V31.244z M31.848,28.354
			c0-0.979-0.129-1.711-0.385-2.193c-0.256-0.483-0.661-0.727-1.216-0.727c-0.544,0-0.938,0.226-1.185,0.674
			c-0.248,0.449-0.379,1.129-0.397,2.039v3.481c0,1.019,0.127,1.763,0.384,2.231c0.256,0.472,0.66,0.707,1.217,0.707
			c0.536,0,0.934-0.229,1.188-0.688c0.257-0.459,0.388-1.177,0.396-2.157v-3.367H31.848z"/>
		<path fill="#1565C0" d="M16.188,28.688h1.485c1.181,0,1.769-0.578,1.769-1.729c0-0.448-0.141-0.813-0.42-1.101
			c-0.281-0.282-0.678-0.426-1.188-0.426c-0.417,0-0.78,0.123-1.09,0.365c-0.308,0.242-0.463,0.544-0.463,0.906H13.13
			c0-0.719,0.201-1.355,0.6-1.917c0.397-0.561,0.951-0.999,1.66-1.313C16.096,23.159,16.874,23,17.723,23
			c1.515,0,2.705,0.346,3.571,1.038c0.865,0.692,1.3,1.644,1.3,2.853c0,0.586-0.18,1.139-0.537,1.66s-0.881,0.942-1.566,1.268
			c0.724,0.264,1.291,0.66,1.701,1.191c0.412,0.533,0.617,1.192,0.617,1.979c0,1.215-0.468,2.188-1.402,2.918
			C20.471,36.635,19.242,37,17.723,37c-0.895,0-1.721-0.17-2.483-0.51c-0.765-0.34-1.343-0.813-1.735-1.412
			c-0.393-0.602-0.59-1.286-0.59-2.053h3.17c0,0.418,0.168,0.776,0.506,1.084c0.338,0.307,0.752,0.459,1.243,0.459
			c0.558,0,0.997-0.154,1.328-0.463c0.331-0.311,0.495-0.703,0.495-1.185c0-0.687-0.172-1.172-0.514-1.459
			c-0.342-0.287-0.817-0.43-1.422-0.43h-1.533V28.688z"/>
	</g>
</g>
</svg>
